<svg width="24" height="24" viewBox="0 0 24 24" fill="none" xmlns="http://www.w3.org/2000/svg">
<path d="M21.96 9.33334H20.6667V6.00001C20.6667 5.8232 20.5964 5.65363 20.4714 5.52861C20.3464 5.40358 20.1768 5.33334 20 5.33334H4C3.82319 5.33334 3.65362 5.2631 3.5286 5.13808C3.40357 5.01306 3.33333 4.84349 3.33333 4.66668C3.33333 4.48987 3.40357 4.3203 3.5286 4.19527C3.65362 4.07025 3.82319 4.00001 4 4.00001H19.7333C19.9101 4.00001 20.0797 3.92977 20.2047 3.80475C20.3298 3.67972 20.4 3.51015 20.4 3.33334C20.4 3.15653 20.3298 2.98696 20.2047 2.86194C20.0797 2.73691 19.9101 2.66668 19.7333 2.66668H4C3.7426 2.66137 3.48667 2.70683 3.24683 2.80045C3.007 2.89408 2.78797 3.03404 2.60224 3.21234C2.41651 3.39064 2.26773 3.60378 2.1644 3.8396C2.06106 4.07541 2.0052 4.32927 2 4.58668V18.5867C2.00087 18.9488 2.07318 19.3072 2.21277 19.6414C2.35236 19.9755 2.5565 20.2789 2.8135 20.534C3.0705 20.7891 3.3753 20.9911 3.71046 21.1282C4.04561 21.2654 4.40453 21.3351 4.76667 21.3333H20C20.1768 21.3333 20.3464 21.2631 20.4714 21.1381C20.5964 21.0131 20.6667 20.8435 20.6667 20.6667V17.3333H21.96C22.0441 17.3397 22.1287 17.3288 22.2085 17.3014C22.2883 17.2739 22.3616 17.2305 22.4241 17.1737C22.4865 17.1169 22.5366 17.0479 22.5715 16.9711C22.6063 16.8942 22.6251 16.811 22.6267 16.7267V10.06C22.6289 9.8768 22.5611 9.69964 22.4373 9.56463C22.3134 9.42961 22.1427 9.3469 21.96 9.33334ZM21.3333 16H15.6133C14.9301 15.9757 14.2845 15.6812 13.8182 15.1812C13.352 14.6812 13.1033 14.0166 13.1267 13.3333C13.1033 12.6501 13.352 11.9855 13.8182 11.4855C14.2845 10.9855 14.9301 10.691 15.6133 10.6667H21.3333V16Z" fill="#f3f5f7"/>
<path d="M16.0273 14.28C16.5796 14.28 17.0273 13.8323 17.0273 13.28C17.0273 12.7277 16.5796 12.28 16.0273 12.28C15.4751 12.28 15.0273 12.7277 15.0273 13.28C15.0273 13.8323 15.4751 14.28 16.0273 14.28Z" fill="#f3f5f7"/>
</svg>
