<svg width="128" height="128" viewBox="0 0 128 128" fill="none" xmlns="http://www.w3.org/2000/svg">
<path d="M103.153 34.4988L98.572 39.1273C100.189 38.5079 103.316 36.2921 105.039 36.8551C106.256 37.2525 107.227 39.2332 107.948 40.2235C110.309 43.4672 114.496 49.2068 114.411 53.3642L105.667 54.5877C108.328 54.7783 112.679 54.2155 115.046 55.6559C115.799 56.1137 115.922 57.3297 116.13 58.1132C116.744 60.4383 117.512 63.2116 117.24 65.6255C112.065 64.4334 104.678 63.1989 99.3138 63.8594C95.4939 63.8594 94.4054 63.8495 91.674 63.8594C90.9251 60.3599 90.4009 59.1022 88.3054 56.2629C79.8506 44.8073 63.0461 38.3915 50.041 45.8922C40.9655 51.1266 38.9038 60.4364 33.7382 68.784C28.467 77.3025 20.171 83.3065 10.2015 84.5568C6.95908 84.9635 3.13185 85.1911 -9.24703e-06 84.1003C1.97268 82.5995 4.29409 81.5943 6.28418 80.0799C10.8813 76.5825 15.1295 71.8072 17.1702 66.2878C18.5529 62.5477 18.6775 58.3095 19.7636 54.4643L23.932 54.2643C22.9603 53.77 21.1161 53.0654 20.6165 52.0175C20.1323 51.0016 21.1682 48.8643 21.5011 47.8747C22.8047 44.0006 24.8948 39.9481 27.2614 36.6305C28.1776 35.346 30.0799 31.9866 31.7279 31.6934C32.4256 31.5691 33.1045 32.2601 33.6358 32.616C35.0972 33.5947 36.6957 34.3651 38.0892 35.4353L38.1911 35.2295C37.1955 34.1636 33.8204 31.2078 33.9819 29.6816C34.1015 28.5501 35.9169 27.6139 36.7301 27.0138C39.8943 24.6801 43.399 22.8401 47.0549 21.44L47.258 21.5433L53.0367 32.9848L49.9029 20.3111C51.4889 20.0797 55.4103 18.2018 56.8259 19.1709C58.2359 20.1364 58.6381 23.8107 59.3503 25.3717C59.1237 23.9774 58.2653 20.0313 59.2099 18.885C59.8241 18.14 61.5026 18.3019 62.3667 18.2539C64.9455 18.1114 67.5747 18.1962 70.141 18.4758C70.9323 18.562 72.2466 18.4651 72.8725 19.0496C73.7244 19.8453 73.0536 22.2371 72.9158 23.2493C72.3856 27.1465 72.8677 31.5007 71.739 35.2777L71.9422 35.381L76.5393 19.4224C79.2302 20.5226 82.1693 20.9879 84.8625 22.1308C91.8331 25.0887 97.7702 29.1072 103.153 34.4988Z" fill="#0099FF"/>
<path d="M91.6705 61.9242V92.8861L80.2109 96.7564L68.4075 75.47C67.4144 73.6897 64.6259 74.5799 64.9315 76.6698L68.7513 112.237L30.5527 96.7564L34.9456 65.5622C35.8488 59.1824 38.9915 53.3463 43.7974 49.1239C48.6033 44.9014 54.7504 42.5757 61.1116 42.573H91.6705L85.6351 51.7455C89.2258 53.7193 91.6705 57.5121 91.6705 61.9242Z" fill="black"/>
</svg>
